<?xml version="1.0" encoding="UTF-8"?>
<svg xmlns="http://www.w3.org/2000/svg" xmlns:xlink="http://www.w3.org/1999/xlink" width="460.8pt" height="345.6pt" viewBox="0 0 460.8 345.6" version="1.1">
<g id="surface1">
<path style=" stroke:none;fill-rule:nonzero;fill:rgb(100%,100%,100%);fill-opacity:1;" d="M 0 0 L 460.800781 0 L 460.800781 345.601562 L 0 345.601562 Z M 0 0 "/>
<path style="fill:none;stroke-width:1.5;stroke-linecap:square;stroke-linejoin:round;stroke:rgb(0%,0%,0%);stroke-opacity:1;stroke-miterlimit:10;" d="M 73.832031 170.28125 L 154.757812 170.28125 L 155.074219 177.089844 L 155.394531 177.972656 L 155.710938 167.6875 L 156.027344 178.710938 L 156.34375 181.230469 L 156.664062 173.238281 L 156.980469 171.773438 L 157.296875 148.933594 L 157.613281 176.949219 L 157.933594 161.359375 L 158.25 163.214844 L 158.566406 181.53125 L 158.882812 162.96875 L 159.519531 195.4375 L 159.835938 164.546875 L 160.152344 186.894531 L 160.472656 166.015625 L 160.789062 176.753906 L 161.105469 154.582031 L 161.421875 160.175781 L 161.738281 174.570312 L 162.058594 176.789062 L 162.375 181.769531 L 162.691406 174.453125 L 163.007812 172.933594 L 163.328125 173.734375 L 163.960938 164.808594 L 164.277344 166.976562 L 164.597656 177.511719 L 164.914062 183.886719 L 165.230469 157.375 L 165.546875 176.804688 L 165.867188 176.453125 L 166.183594 175.214844 L 166.5 187.71875 L 166.816406 174.804688 L 167.136719 174.820312 L 167.453125 164.414062 L 167.769531 163.675781 L 168.085938 170.246094 L 168.40625 161.46875 L 168.722656 167.066406 L 169.039062 170.429688 L 169.355469 168.761719 L 169.675781 172.085938 L 169.992188 174.019531 L 170.308594 172.816406 L 170.625 180.953125 L 170.945312 167.628906 L 171.261719 179.679688 L 171.578125 162.320312 L 171.894531 172.644531 L 172.214844 169.816406 L 172.53125 165.609375 L 172.847656 164.195312 L 173.164062 185.140625 L 173.800781 161.957031 L 174.117188 186.347656 L 174.433594 166.621094 L 174.75 191.621094 L 175.386719 169.917969 L 175.703125 185.957031 L 176.019531 179.605469 L 176.339844 184.207031 L 176.65625 154.691406 L 176.972656 168.730469 L 177.289062 164.917969 L 177.609375 172.390625 L 177.925781 173.625 L 178.242188 185.574219 L 178.558594 173.042969 L 178.878906 177.488281 L 179.195312 162.167969 L 179.828125 156.410156 L 180.148438 162.21875 L 180.464844 175.945312 L 180.78125 180.839844 L 181.097656 163.03125 L 181.417969 166.914062 L 181.734375 187.015625 L 182.050781 166.921875 L 182.367188 162.578125 L 182.6875 169.726562 L 183.003906 172.035156 L 183.636719 183.96875 L 183.953125 162.710938 L 184.273438 173.207031 L 184.589844 172.492188 L 184.90625 153.890625 L 185.222656 163.808594 L 185.859375 168.9375 L 186.175781 155.902344 L 186.492188 154.015625 L 186.8125 161.488281 L 187.128906 164.773438 L 187.445312 190.097656 L 187.761719 169.113281 L 188.082031 171.515625 L 188.398438 169.394531 L 188.714844 161.363281 L 189.03125 196.199219 L 189.351562 175.667969 L 189.667969 167.730469 L 190.300781 183.6875 L 190.621094 162.0625 L 190.9375 167.664062 L 191.253906 179.46875 L 191.570312 167.304688 L 191.890625 162.511719 L 192.207031 170.234375 L 192.523438 162.710938 L 193.476562 181.25 L 193.792969 171.097656 L 194.109375 168.445312 L 194.429688 161.996094 L 194.746094 171.371094 L 195.0625 165.957031 L 195.378906 179.410156 L 195.695312 177.6875 L 196.015625 171.328125 L 196.332031 180.261719 L 196.648438 162.523438 L 196.964844 165.902344 L 197.285156 167.644531 L 197.601562 167.078125 L 197.917969 151.164062 L 198.554688 191.109375 L 198.871094 168.398438 L 199.1875 170.761719 L 199.824219 179.542969 L 200.457031 168.566406 L 200.773438 175.039062 L 201.09375 147.460938 L 201.410156 179.371094 L 201.726562 177.785156 L 202.042969 191.933594 L 202.363281 167.902344 L 202.679688 189.359375 L 202.996094 175.386719 L 203.3125 172.890625 L 203.632812 176.996094 L 203.949219 153.832031 L 204.265625 160.875 L 204.582031 157.804688 L 204.902344 178.632812 L 205.21875 159.605469 L 205.535156 165.589844 L 206.167969 160.542969 L 206.488281 178.878906 L 206.804688 174.296875 L 207.121094 162.121094 L 207.4375 195.40625 L 207.757812 155.964844 L 208.074219 165.050781 L 208.390625 170.714844 L 208.707031 168.195312 L 209.027344 180.027344 L 209.34375 173.59375 L 209.660156 159.875 L 209.976562 158.003906 L 210.296875 144.777344 L 210.613281 170.980469 L 210.929688 176.511719 L 211.246094 175.148438 L 211.566406 179.914062 L 211.882812 171.019531 L 212.199219 166.664062 L 212.515625 170.605469 L 212.835938 159.910156 L 213.152344 172.5 L 213.46875 173.570312 L 213.785156 175.78125 L 214.105469 185.726562 L 214.421875 185.113281 L 214.738281 181.4375 L 215.054688 157.972656 L 215.375 161.8125 L 215.691406 157.277344 L 216.007812 99.445312 L 216.324219 169.980469 L 216.644531 130.230469 L 216.960938 62.625 L 217.277344 77.226562 L 217.59375 206.59375 L 217.910156 122.652344 L 218.230469 160.957031 L 218.546875 177.269531 L 218.863281 159.5 L 219.179688 179.375 L 219.5 109.90625 L 219.816406 131.996094 L 220.132812 172.933594 L 220.449219 140.425781 L 220.769531 141.140625 L 221.085938 122.027344 L 221.402344 171.8125 L 221.71875 176.660156 L 222.039062 206.882812 L 222.355469 279.453125 L 222.671875 138.753906 L 222.988281 141.5 L 223.308594 210.925781 L 223.625 65.398438 L 223.941406 240.800781 L 224.257812 170.039062 L 224.578125 180.175781 L 224.894531 95.761719 L 225.210938 112.214844 L 225.527344 165.242188 L 225.847656 138.03125 L 226.480469 268.175781 L 226.796875 176.539062 L 227.117188 187.097656 L 227.433594 100.914062 L 227.75 119.386719 L 228.066406 187.054688 L 228.386719 183.671875 L 229.335938 257.40625 L 229.652344 65.730469 L 229.972656 216.753906 L 230.289062 190.8125 L 230.605469 242.292969 L 230.921875 140.710938 L 231.242188 227.59375 L 231.558594 180.769531 L 231.875 210.792969 L 232.191406 168.835938 L 232.828125 224.269531 L 233.144531 168.261719 L 233.460938 144.1875 L 233.78125 167.054688 L 234.097656 150.992188 L 234.414062 195.992188 L 234.730469 204.75 L 235.050781 201.742188 L 235.367188 180.027344 L 235.683594 203.164062 L 236 255.378906 L 236.320312 94.464844 L 236.636719 161.933594 L 236.953125 125.226562 L 237.269531 53.566406 L 237.589844 100.410156 L 237.90625 222.75 L 238.222656 136.125 L 238.539062 170.015625 L 238.859375 180.410156 L 239.175781 155.3125 L 239.492188 165.523438 L 239.808594 97.28125 L 240.125 137.996094 L 240.445312 193.34375 L 240.761719 144.148438 L 241.078125 150.347656 L 241.394531 101.6875 L 241.714844 190.242188 L 242.03125 152.148438 L 242.347656 207.09375 L 242.664062 295.488281 L 242.984375 141.417969 L 243.300781 138.195312 L 243.617188 207.078125 L 243.933594 77.589844 L 244.253906 235.128906 L 244.570312 177.050781 L 244.886719 176.882812 L 245.203125 111.082031 L 245.523438 106.363281 L 245.839844 164 L 246.15625 168.105469 L 246.792969 267.5625 L 247.109375 203.222656 L 247.425781 175.214844 L 247.742188 106.363281 L 248.0625 104.9375 L 248.378906 189.851562 L 248.695312 180.753906 L 249.011719 217.761719 L 249.332031 234.332031 L 249.648438 238.824219 L 249.964844 92.265625 L 250.28125 187.992188 L 250.601562 194.617188 L 250.917969 231.664062 L 251.234375 136.367188 L 251.550781 250.171875 L 251.867188 191.945312 L 252.1875 210.90625 L 252.503906 136.175781 L 252.820312 194.976562 L 253.136719 226.140625 L 253.457031 178.117188 L 253.773438 151.132812 L 254.089844 162.726562 L 254.40625 159.476562 L 254.726562 204.578125 L 255.042969 183.625 L 255.359375 210.777344 L 255.675781 184.902344 L 255.996094 200.984375 L 256.3125 239.070312 L 256.628906 171.136719 L 256.945312 157.34375 L 257.265625 160.496094 L 257.582031 179.707031 L 257.898438 181.804688 L 258.214844 173.167969 L 258.535156 160.550781 L 258.851562 170.96875 L 259.167969 175.964844 L 259.484375 155.597656 L 259.804688 167.570312 L 260.121094 192.234375 L 260.4375 167.28125 L 260.753906 165.363281 L 261.074219 168.148438 L 261.390625 166.027344 L 261.707031 170.917969 L 262.023438 182.753906 L 262.34375 173.789062 L 262.660156 179.230469 L 262.976562 179.105469 L 263.292969 182.230469 L 263.609375 166.003906 L 263.929688 169.355469 L 264.246094 174.523438 L 264.5625 176.425781 L 264.878906 170.503906 L 265.199219 160.074219 L 265.515625 189.242188 L 265.832031 166.71875 L 266.148438 175.445312 L 266.46875 188.113281 L 266.785156 188.691406 L 267.417969 168.207031 L 267.738281 166.566406 L 268.054688 179.164062 L 268.371094 160.660156 L 268.6875 156.820312 L 269.324219 175.878906 L 269.640625 159.644531 L 269.957031 163.136719 L 270.277344 162.078125 L 270.59375 176.492188 L 270.910156 197.097656 L 271.226562 150.257812 L 271.546875 185.523438 L 271.863281 170.621094 L 272.179688 147.761719 L 272.496094 167.15625 L 272.816406 161.304688 L 273.132812 184.496094 L 273.449219 187.101562 L 274.082031 159.964844 L 274.402344 173.558594 L 274.71875 177.800781 L 275.351562 160.046875 L 275.671875 183.953125 L 275.988281 181.734375 L 276.304688 177.742188 L 276.621094 159.925781 L 276.941406 168.0625 L 277.257812 150.113281 L 277.890625 170.613281 L 278.210938 158.316406 L 278.84375 176.953125 L 279.160156 163.851562 L 279.480469 176.871094 L 279.796875 173.03125 L 280.113281 157.722656 L 280.429688 171.242188 L 280.75 177.882812 L 281.066406 174.675781 L 281.382812 160.617188 L 281.699219 175.511719 L 282.019531 173.941406 L 282.335938 175.109375 L 282.652344 168.542969 L 282.96875 173.929688 L 283.289062 185.4375 L 283.605469 178.675781 L 283.921875 179.105469 L 284.238281 158.519531 L 284.558594 162.59375 L 284.875 164.726562 L 285.191406 175.0625 L 285.507812 178 L 285.824219 175.085938 L 286.144531 180.234375 L 286.460938 146.660156 L 286.777344 191.523438 L 287.09375 164.949219 L 287.414062 182.433594 L 287.730469 171.269531 L 288.046875 179.628906 L 288.363281 181.421875 L 288.683594 181.070312 L 289 153.679688 L 289.316406 171.542969 L 289.632812 177.527344 L 289.953125 165.023438 L 290.269531 170.183594 L 290.585938 163.472656 L 290.902344 187.539062 L 291.222656 167.410156 L 291.539062 162.972656 L 291.855469 186.003906 L 292.171875 166.042969 L 292.492188 154.238281 L 292.808594 170.421875 L 293.125 162.511719 L 293.441406 163.9375 L 293.761719 176.976562 L 294.078125 169.90625 L 294.394531 185.105469 L 294.710938 174.550781 L 295.03125 167.769531 L 295.347656 163.441406 L 295.664062 170.050781 L 295.980469 163.472656 L 296.300781 180.714844 L 296.617188 171.246094 L 296.933594 170.101562 L 297.25 152.785156 L 297.566406 172.308594 L 297.886719 175.003906 L 298.203125 170.082031 L 298.519531 178.976562 L 298.835938 168.460938 L 299.15625 173.738281 L 299.472656 187.230469 L 299.789062 170.835938 L 300.105469 173.285156 L 300.425781 185.726562 L 301.058594 156.195312 L 301.375 165.351562 L 301.695312 164.492188 L 302.011719 182.972656 L 302.328125 165.773438 L 302.644531 168.878906 L 302.964844 165.277344 L 303.28125 166.285156 L 303.597656 183.148438 L 303.914062 170.675781 L 304.234375 177.453125 L 304.550781 170.757812 L 304.867188 178.773438 L 305.183594 157.867188 L 305.503906 178.410156 L 305.820312 178.789062 L 306.136719 169.578125 L 306.453125 180.472656 L 306.773438 174.300781 L 307.089844 178.132812 L 307.40625 156.933594 L 308.359375 173.984375 L 308.675781 161.382812 L 308.992188 166.449219 L 309.308594 165.570312 L 309.628906 170.53125 L 309.945312 186.253906 L 310.261719 171.347656 L 310.578125 175.320312 L 310.898438 164.179688 L 311.214844 160.710938 L 311.53125 176.507812 L 312.167969 153.863281 L 312.484375 176.601562 L 312.800781 154.371094 L 313.117188 178.347656 L 313.4375 170.066406 L 313.753906 170.386719 L 314.070312 170.175781 L 314.386719 178.207031 L 314.707031 175.875 L 315.023438 176.601562 L 315.339844 167.191406 L 315.65625 167.160156 L 315.976562 149.226562 L 316.292969 157.3125 L 316.609375 175.105469 L 317.246094 160.851562 L 317.5625 170.28125 L 398.488281 170.28125 "/>
</g>
</svg>
