<?xml version="1.0" encoding="UTF-8"?>
<svg xmlns="http://www.w3.org/2000/svg" xmlns:xlink="http://www.w3.org/1999/xlink" width="460.8pt" height="345.6pt" viewBox="0 0 460.8 345.6" version="1.1">
<g id="surface1">
<path style=" stroke:none;fill-rule:nonzero;fill:rgb(100%,100%,100%);fill-opacity:1;" d="M 0 0 L 460.800781 0 L 460.800781 345.601562 L 0 345.601562 Z M 0 0 "/>
<path style="fill:none;stroke-width:1.5;stroke-linecap:square;stroke-linejoin:round;stroke:rgb(0%,0%,0%);stroke-opacity:1;stroke-miterlimit:10;" d="M 73.832031 167.425781 L 215.691406 167.425781 L 216.007812 78.933594 L 216.324219 147.351562 L 216.644531 118.328125 L 216.960938 55.015625 L 217.277344 73.742188 L 217.59375 216.445312 L 217.910156 119.765625 L 218.230469 175.015625 L 218.546875 172.601562 L 218.863281 146.828125 L 219.179688 160.199219 L 219.5 94.472656 L 220.132812 161.320312 L 220.449219 145.160156 L 220.769531 150.6875 L 221.085938 92.476562 L 221.402344 177.714844 L 221.71875 151.71875 L 222.039062 210.265625 L 222.355469 295.488281 L 222.671875 134.636719 L 222.988281 124.0625 L 223.308594 204.652344 L 223.625 53.566406 L 223.941406 240.378906 L 224.257812 165.128906 L 224.578125 176.8125 L 224.894531 90.535156 L 225.210938 93.71875 L 225.527344 159.652344 L 225.847656 148.453125 L 226.480469 266.785156 L 226.796875 184.875 L 227.117188 159.582031 L 227.433594 105.710938 L 227.75 107.109375 L 228.066406 186.851562 L 228.386719 182.589844 L 228.703125 220.023438 L 229.335938 253.015625 L 229.652344 69.570312 L 229.972656 192.988281 L 230.289062 189.398438 L 230.605469 230.265625 L 230.921875 128.421875 L 231.242188 248.382812 L 231.558594 178.09375 L 231.875 212.34375 L 232.191406 148.015625 L 232.828125 226.648438 L 233.144531 168.835938 L 233.460938 145.9375 L 233.78125 164.085938 L 234.097656 152.25 L 234.414062 199.242188 L 234.730469 185.621094 L 235.050781 201.15625 L 235.367188 185.460938 L 235.683594 208.214844 L 236 254.019531 L 236.320312 78.933594 L 236.636719 147.351562 L 236.953125 118.328125 L 237.269531 55.015625 L 237.589844 73.742188 L 237.90625 216.445312 L 238.222656 119.765625 L 238.539062 175.015625 L 238.859375 172.601562 L 239.175781 146.828125 L 239.492188 160.199219 L 239.808594 94.472656 L 240.445312 161.320312 L 240.761719 145.160156 L 241.078125 150.6875 L 241.394531 92.476562 L 241.714844 177.714844 L 242.03125 151.71875 L 242.347656 210.265625 L 242.664062 295.488281 L 242.984375 134.636719 L 243.300781 124.0625 L 243.617188 204.652344 L 243.933594 53.566406 L 244.253906 240.378906 L 244.570312 165.128906 L 244.886719 176.8125 L 245.203125 90.535156 L 245.523438 93.71875 L 245.839844 159.652344 L 246.15625 148.453125 L 246.792969 266.785156 L 247.109375 184.875 L 247.425781 159.582031 L 247.742188 105.710938 L 248.0625 107.109375 L 248.378906 186.851562 L 248.695312 182.589844 L 249.011719 220.023438 L 249.648438 253.015625 L 249.964844 69.570312 L 250.28125 192.988281 L 250.601562 189.398438 L 250.917969 230.265625 L 251.234375 128.421875 L 251.550781 248.382812 L 251.867188 178.09375 L 252.1875 212.34375 L 252.503906 148.015625 L 253.136719 226.648438 L 253.457031 168.835938 L 253.773438 145.9375 L 254.089844 164.085938 L 254.40625 152.25 L 254.726562 199.242188 L 255.042969 185.621094 L 255.359375 201.15625 L 255.675781 185.460938 L 255.996094 208.214844 L 256.3125 254.019531 L 256.628906 167.425781 L 398.488281 167.425781 "/>
</g>
</svg>
