<?xml version="1.0" encoding="UTF-8"?>
<svg xmlns="http://www.w3.org/2000/svg" xmlns:xlink="http://www.w3.org/1999/xlink" width="460.8pt" height="345.6pt" viewBox="0 0 460.8 345.6" version="1.1">
<g id="surface1">
<path style=" stroke:none;fill-rule:nonzero;fill:rgb(100%,100%,100%);fill-opacity:1;" d="M 0 0 L 460.800781 0 L 460.800781 345.601562 L 0 345.601562 Z M 0 0 "/>
<path style="fill:none;stroke-width:1.5;stroke-linecap:square;stroke-linejoin:round;stroke:rgb(0%,0%,0%);stroke-opacity:1;stroke-miterlimit:10;" d="M 73.832031 177.089844 L 74.46875 177.972656 L 75.101562 167.6875 L 75.738281 178.710938 L 76.375 181.230469 L 77.007812 173.238281 L 77.644531 171.773438 L 78.28125 148.933594 L 78.914062 176.949219 L 79.550781 161.359375 L 80.1875 163.214844 L 80.820312 181.53125 L 81.457031 162.96875 L 82.09375 181.484375 L 82.726562 195.4375 L 83.363281 164.546875 L 83.996094 186.894531 L 84.632812 166.015625 L 85.269531 176.753906 L 85.902344 154.582031 L 86.539062 160.175781 L 87.175781 174.570312 L 87.808594 176.789062 L 88.445312 181.769531 L 89.082031 174.453125 L 89.714844 172.933594 L 90.351562 173.734375 L 90.988281 168.800781 L 91.621094 164.808594 L 92.257812 166.976562 L 92.894531 177.511719 L 93.527344 183.886719 L 94.164062 157.375 L 94.796875 176.804688 L 95.433594 176.453125 L 96.070312 175.214844 L 96.703125 187.71875 L 97.339844 174.804688 L 97.976562 174.820312 L 98.609375 164.414062 L 99.246094 163.675781 L 99.882812 170.246094 L 100.515625 161.46875 L 101.152344 167.066406 L 101.789062 170.429688 L 102.421875 168.761719 L 103.058594 172.085938 L 103.691406 174.019531 L 104.328125 172.816406 L 104.964844 180.953125 L 105.597656 167.628906 L 106.234375 179.679688 L 106.871094 162.320312 L 107.503906 172.644531 L 108.140625 169.816406 L 108.777344 165.609375 L 109.410156 164.195312 L 110.046875 185.140625 L 110.683594 172.242188 L 111.316406 161.957031 L 111.953125 186.347656 L 112.589844 166.621094 L 113.222656 191.621094 L 114.492188 169.917969 L 115.128906 185.957031 L 115.765625 179.605469 L 116.398438 184.207031 L 117.035156 154.691406 L 117.671875 168.730469 L 118.304688 164.917969 L 118.941406 172.390625 L 119.578125 173.625 L 120.210938 185.574219 L 120.847656 173.042969 L 121.484375 177.488281 L 122.117188 162.167969 L 123.386719 156.410156 L 124.023438 162.21875 L 124.660156 175.945312 L 125.292969 180.839844 L 125.929688 163.03125 L 126.566406 166.914062 L 127.199219 187.015625 L 127.835938 166.921875 L 128.472656 162.578125 L 129.105469 169.726562 L 129.742188 172.035156 L 131.011719 183.96875 L 131.648438 162.710938 L 132.285156 173.207031 L 132.917969 172.492188 L 133.554688 153.890625 L 134.1875 163.808594 L 134.824219 166.773438 L 135.460938 168.9375 L 136.09375 155.902344 L 136.730469 154.015625 L 137.367188 161.488281 L 138 164.773438 L 138.636719 190.097656 L 139.273438 169.113281 L 139.90625 171.515625 L 140.542969 169.394531 L 141.179688 161.363281 L 141.8125 196.199219 L 142.449219 175.667969 L 143.082031 167.730469 L 143.71875 174.699219 L 144.355469 183.6875 L 144.988281 162.0625 L 145.625 167.664062 L 146.261719 179.46875 L 146.894531 167.304688 L 147.53125 162.511719 L 148.167969 170.234375 L 148.800781 162.710938 L 149.4375 169.542969 L 150.074219 174.023438 L 150.707031 181.25 L 151.34375 171.097656 L 151.980469 168.445312 L 152.613281 161.996094 L 153.25 171.371094 L 153.882812 165.957031 L 154.519531 179.410156 L 155.15625 177.6875 L 155.789062 171.328125 L 156.425781 180.261719 L 157.0625 162.523438 L 157.695312 165.902344 L 158.332031 167.644531 L 158.96875 167.078125 L 159.601562 151.164062 L 160.238281 174.71875 L 160.875 191.109375 L 161.507812 168.398438 L 162.144531 170.761719 L 163.414062 179.542969 L 164.683594 168.566406 L 165.320312 175.039062 L 165.957031 147.460938 L 166.589844 179.371094 L 167.226562 177.785156 L 167.863281 191.933594 L 168.496094 167.902344 L 169.132812 189.359375 L 169.769531 175.386719 L 170.402344 172.890625 L 171.039062 176.996094 L 171.671875 153.832031 L 172.308594 160.875 L 172.945312 157.804688 L 173.578125 178.632812 L 174.214844 159.605469 L 174.851562 165.589844 L 176.121094 160.542969 L 176.757812 178.878906 L 177.390625 174.296875 L 178.027344 162.121094 L 178.664062 195.40625 L 179.296875 155.964844 L 179.933594 165.050781 L 180.570312 170.714844 L 181.203125 168.195312 L 181.839844 180.027344 L 182.472656 173.59375 L 183.109375 159.875 L 183.746094 158.003906 L 184.378906 144.777344 L 185.015625 170.980469 L 185.652344 176.511719 L 186.285156 175.148438 L 186.921875 179.914062 L 187.558594 171.019531 L 188.191406 166.664062 L 188.828125 170.605469 L 189.464844 159.910156 L 190.097656 172.5 L 190.734375 173.570312 L 191.367188 175.78125 L 192.003906 185.726562 L 192.640625 185.113281 L 193.273438 181.4375 L 193.910156 157.972656 L 194.546875 161.8125 L 195.179688 157.277344 L 195.816406 99.445312 L 196.453125 169.980469 L 197.085938 130.230469 L 197.722656 62.625 L 198.359375 77.226562 L 198.992188 206.59375 L 199.628906 122.652344 L 200.265625 160.957031 L 200.898438 177.269531 L 201.535156 159.5 L 202.167969 179.375 L 202.804688 109.90625 L 203.441406 131.996094 L 204.074219 172.933594 L 204.710938 140.425781 L 205.347656 141.140625 L 205.980469 122.027344 L 206.617188 171.8125 L 207.253906 176.660156 L 207.886719 206.882812 L 208.523438 279.453125 L 209.160156 138.753906 L 209.792969 141.5 L 210.429688 210.925781 L 211.0625 65.398438 L 211.699219 240.800781 L 212.335938 170.039062 L 212.96875 180.175781 L 213.605469 95.761719 L 214.242188 112.214844 L 214.875 165.242188 L 215.511719 138.03125 L 216.148438 215.914062 L 216.78125 268.175781 L 217.417969 176.539062 L 218.054688 187.097656 L 218.6875 100.914062 L 219.324219 119.386719 L 219.960938 187.054688 L 220.59375 183.671875 L 221.863281 239.984375 L 222.5 257.40625 L 223.136719 65.730469 L 223.769531 216.753906 L 224.40625 190.8125 L 225.042969 242.292969 L 225.675781 140.710938 L 226.3125 227.59375 L 226.949219 180.769531 L 227.582031 210.792969 L 228.21875 168.835938 L 228.855469 201.339844 L 229.488281 224.269531 L 230.125 168.261719 L 230.757812 144.1875 L 231.394531 167.054688 L 232.03125 150.992188 L 232.664062 195.992188 L 233.300781 204.75 L 233.9375 201.742188 L 234.570312 180.027344 L 235.207031 203.164062 L 235.84375 255.378906 L 236.476562 94.464844 L 237.113281 161.933594 L 237.75 125.226562 L 238.382812 53.566406 L 239.019531 100.410156 L 239.65625 222.75 L 240.289062 136.125 L 240.925781 170.015625 L 241.558594 180.410156 L 242.195312 155.3125 L 242.832031 165.523438 L 243.464844 97.28125 L 244.101562 137.996094 L 244.738281 193.34375 L 245.371094 144.148438 L 246.007812 150.347656 L 246.644531 101.6875 L 247.277344 190.242188 L 247.914062 152.148438 L 248.550781 207.09375 L 249.183594 295.488281 L 249.820312 141.417969 L 250.453125 138.195312 L 251.089844 207.078125 L 251.726562 77.589844 L 252.359375 235.128906 L 252.996094 177.050781 L 253.632812 176.882812 L 254.265625 111.082031 L 254.902344 106.363281 L 255.539062 164 L 256.171875 168.105469 L 256.808594 211.1875 L 257.445312 267.5625 L 258.078125 203.222656 L 258.714844 175.214844 L 259.351562 106.363281 L 259.984375 104.9375 L 260.621094 189.851562 L 261.253906 180.753906 L 261.890625 217.761719 L 262.527344 234.332031 L 263.160156 238.824219 L 263.796875 92.265625 L 264.433594 187.992188 L 265.066406 194.617188 L 265.703125 231.664062 L 266.339844 136.367188 L 266.972656 250.171875 L 267.609375 191.945312 L 268.246094 210.90625 L 268.878906 136.175781 L 269.515625 194.976562 L 270.148438 226.140625 L 270.785156 178.117188 L 271.421875 151.132812 L 272.054688 162.726562 L 272.691406 159.476562 L 273.328125 204.578125 L 273.960938 183.625 L 274.597656 210.777344 L 275.234375 184.902344 L 275.867188 200.984375 L 276.503906 239.070312 L 277.140625 171.136719 L 277.773438 157.34375 L 278.410156 160.496094 L 279.042969 179.707031 L 279.679688 181.804688 L 280.316406 173.167969 L 280.949219 160.550781 L 281.585938 170.96875 L 282.222656 175.964844 L 282.855469 155.597656 L 283.492188 167.570312 L 284.128906 192.234375 L 284.761719 167.28125 L 285.398438 165.363281 L 286.035156 168.148438 L 286.667969 166.027344 L 287.304688 170.917969 L 287.941406 182.753906 L 288.574219 173.789062 L 289.210938 179.230469 L 289.84375 179.105469 L 290.480469 182.230469 L 291.117188 166.003906 L 291.75 169.355469 L 292.386719 174.523438 L 293.023438 176.425781 L 293.65625 170.503906 L 294.292969 160.074219 L 294.929688 189.242188 L 295.5625 166.71875 L 296.199219 175.445312 L 296.835938 188.113281 L 297.46875 188.691406 L 298.738281 168.207031 L 299.375 166.566406 L 300.011719 179.164062 L 300.644531 160.660156 L 301.28125 156.820312 L 302.550781 175.878906 L 303.1875 159.644531 L 303.824219 163.136719 L 304.457031 162.078125 L 305.09375 176.492188 L 305.730469 197.097656 L 306.363281 150.257812 L 307 185.523438 L 307.636719 170.621094 L 308.269531 147.761719 L 308.90625 167.15625 L 309.539062 161.304688 L 310.175781 184.496094 L 310.8125 187.101562 L 311.445312 175.324219 L 312.082031 159.964844 L 312.71875 173.558594 L 313.351562 177.800781 L 314.625 160.046875 L 315.257812 183.953125 L 315.894531 181.734375 L 316.53125 177.742188 L 317.164062 159.925781 L 317.800781 168.0625 L 318.433594 150.113281 L 319.070312 161.425781 L 319.707031 170.613281 L 320.339844 158.316406 L 321.613281 176.953125 L 322.246094 163.851562 L 322.882812 176.871094 L 323.519531 173.03125 L 324.152344 157.722656 L 324.789062 171.242188 L 325.425781 177.882812 L 326.058594 174.675781 L 326.695312 160.617188 L 327.332031 175.511719 L 327.964844 173.941406 L 328.601562 175.109375 L 329.234375 168.542969 L 329.871094 173.929688 L 330.507812 185.4375 L 331.140625 178.675781 L 331.777344 179.105469 L 332.414062 158.519531 L 333.046875 162.59375 L 333.683594 164.726562 L 334.320312 175.0625 L 334.953125 178 L 335.589844 175.085938 L 336.226562 180.234375 L 336.859375 146.660156 L 337.496094 191.523438 L 338.128906 164.949219 L 338.765625 182.433594 L 339.402344 171.269531 L 340.035156 179.628906 L 340.671875 181.421875 L 341.308594 181.070312 L 341.941406 153.679688 L 342.578125 171.542969 L 343.214844 177.527344 L 343.847656 165.023438 L 344.484375 170.183594 L 345.121094 163.472656 L 345.753906 187.539062 L 346.390625 167.410156 L 347.027344 162.972656 L 347.660156 186.003906 L 348.296875 166.042969 L 348.929688 154.238281 L 349.566406 170.421875 L 350.203125 162.511719 L 350.835938 163.9375 L 351.472656 176.976562 L 352.109375 169.90625 L 352.742188 185.105469 L 353.378906 174.550781 L 354.015625 167.769531 L 354.648438 163.441406 L 355.285156 170.050781 L 355.921875 163.472656 L 356.554688 180.714844 L 357.191406 171.246094 L 357.824219 170.101562 L 358.460938 152.785156 L 359.097656 172.308594 L 359.730469 175.003906 L 360.367188 170.082031 L 361.003906 178.976562 L 361.636719 168.460938 L 362.273438 173.738281 L 362.910156 187.230469 L 363.542969 170.835938 L 364.179688 173.285156 L 364.816406 185.726562 L 366.085938 156.195312 L 366.71875 165.351562 L 367.355469 164.492188 L 367.992188 182.972656 L 368.625 165.773438 L 369.261719 168.878906 L 369.898438 165.277344 L 370.53125 166.285156 L 371.167969 183.148438 L 371.804688 170.675781 L 372.4375 177.453125 L 373.074219 170.757812 L 373.710938 178.773438 L 374.34375 157.867188 L 374.980469 178.410156 L 375.617188 178.789062 L 376.25 169.578125 L 376.886719 180.472656 L 377.519531 174.300781 L 378.15625 178.132812 L 378.792969 156.933594 L 379.425781 162.847656 L 380.0625 170.828125 L 380.699219 173.984375 L 381.332031 161.382812 L 381.96875 166.449219 L 382.605469 165.570312 L 383.238281 170.53125 L 383.875 186.253906 L 384.511719 171.347656 L 385.144531 175.320312 L 385.78125 164.179688 L 386.414062 160.710938 L 387.050781 176.507812 L 388.320312 153.863281 L 388.957031 176.601562 L 389.59375 154.371094 L 390.226562 178.347656 L 390.863281 170.066406 L 391.5 170.386719 L 392.132812 170.175781 L 392.769531 178.207031 L 393.40625 175.875 L 394.039062 176.601562 L 394.675781 167.191406 L 395.3125 167.160156 L 395.945312 149.226562 L 396.582031 157.3125 L 397.214844 175.105469 L 397.851562 167.210938 L 398.488281 160.851562 "/>
</g>
</svg>
