<?xml version="1.0" encoding="UTF-8"?>
<svg xmlns="http://www.w3.org/2000/svg" xmlns:xlink="http://www.w3.org/1999/xlink" width="460.8pt" height="345.6pt" viewBox="0 0 460.8 345.6" version="1.1">
<g id="surface1">
<path style=" stroke:none;fill-rule:nonzero;fill:rgb(100%,100%,100%);fill-opacity:1;" d="M 0 0 L 460.800781 0 L 460.800781 345.601562 L 0 345.601562 Z M 0 0 "/>
<path style="fill:none;stroke-width:1.5;stroke-linecap:square;stroke-linejoin:round;stroke:rgb(0%,0%,0%);stroke-opacity:1;stroke-miterlimit:10;" d="M 73.832031 261.375 L 216.007812 261.375 L 216.324219 261.242188 L 216.644531 261.695312 L 216.960938 262.839844 L 217.277344 262.773438 L 217.59375 260.691406 L 217.910156 260.484375 L 218.230469 259.679688 L 218.546875 262.203125 L 218.863281 260.828125 L 219.179688 263.515625 L 219.816406 257.839844 L 220.132812 262.835938 L 220.449219 260.476562 L 220.769531 267.199219 L 221.085938 269.800781 L 221.71875 263.617188 L 222.039062 264.109375 L 222.355469 249.265625 L 222.671875 269.035156 L 223.625 263.273438 L 223.941406 274.070312 L 224.257812 263.867188 L 224.578125 259.019531 L 224.894531 267.550781 L 225.210938 270.046875 L 225.527344 258.117188 L 225.847656 273.617188 L 226.164062 266.160156 L 226.480469 274.359375 L 226.796875 270.574219 L 227.117188 254.578125 L 227.433594 256.355469 L 227.75 266.273438 L 228.066406 256.148438 L 228.386719 270.5 L 228.703125 271.128906 L 229.019531 268.601562 L 229.335938 231.453125 L 229.652344 265.921875 L 229.972656 258.816406 L 230.289062 268.820312 L 230.605469 295.488281 L 230.921875 288.464844 L 231.242188 237.179688 L 231.558594 256.714844 L 231.875 230.773438 L 232.191406 235.785156 L 232.511719 272.429688 L 232.828125 258.515625 L 233.144531 278.484375 L 233.460938 221.882812 L 234.097656 242.226562 L 234.414062 274.386719 L 234.730469 285.484375 L 235.367188 240.378906 L 235.683594 241.902344 L 236 53.566406 L 236.320312 241.28125 L 236.636719 243.523438 L 236.953125 268.898438 L 237.269531 282.207031 L 237.589844 279.34375 L 237.90625 241.761719 L 238.222656 223.289062 L 238.539062 229.28125 L 238.859375 273.484375 L 239.175781 254.792969 L 239.492188 272.804688 L 239.808594 238.292969 L 240.125 225.925781 L 240.445312 256.441406 L 240.761719 238.441406 L 241.078125 286.886719 L 241.394531 291.929688 L 241.714844 267.722656 L 242.03125 255.734375 L 242.347656 264.285156 L 242.664062 229.484375 L 242.984375 266.40625 L 243.300781 270.265625 L 243.617188 269.070312 L 243.933594 251.597656 L 244.253906 268.640625 L 244.570312 261.882812 L 244.886719 251.304688 L 245.203125 270.980469 L 245.523438 273.875 L 245.839844 263.296875 L 246.15625 269.121094 L 246.472656 259.648438 L 246.792969 271.0625 L 247.109375 271.113281 L 247.425781 260.828125 L 247.742188 262.945312 L 248.0625 272.449219 L 248.378906 263.808594 L 248.695312 259.109375 L 249.011719 267.25 L 249.332031 270.957031 L 249.648438 250.519531 L 249.964844 265.179688 L 250.28125 263.539062 L 250.601562 267.332031 L 250.917969 267.785156 L 251.234375 269.371094 L 251.550781 260.214844 L 251.867188 263.355469 L 252.1875 259.769531 L 252.503906 259.679688 L 252.820312 262.773438 L 253.136719 260.878906 L 253.457031 262.910156 L 253.773438 260.136719 L 254.40625 261.179688 L 254.726562 263.074219 L 255.042969 262.777344 L 255.359375 261.449219 L 255.675781 260.945312 L 255.996094 261.320312 L 256.945312 261.375 L 398.488281 261.375 "/>
</g>
</svg>
