<?xml version="1.0" encoding="UTF-8"?>
<svg xmlns="http://www.w3.org/2000/svg" xmlns:xlink="http://www.w3.org/1999/xlink" width="460.8pt" height="345.6pt" viewBox="0 0 460.8 345.6" version="1.1">
<g id="surface1">
<path style=" stroke:none;fill-rule:nonzero;fill:rgb(100%,100%,100%);fill-opacity:1;" d="M 0 0 L 460.800781 0 L 460.800781 345.601562 L 0 345.601562 Z M 0 0 "/>
<path style="fill:none;stroke-width:1.5;stroke-linecap:square;stroke-linejoin:round;stroke:rgb(0%,0%,0%);stroke-opacity:1;stroke-miterlimit:10;" d="M 73.832031 295.488281 L 195.539062 295.488281 L 195.695312 295.210938 L 196.015625 295.023438 L 196.332031 294.402344 L 196.648438 294.335938 L 196.808594 292.09375 L 196.964844 291.933594 L 197.125 290.914062 L 197.601562 290.613281 L 197.917969 289.472656 L 198.078125 289.417969 L 198.710938 287.484375 L 198.871094 286.28125 L 199.03125 286.226562 L 199.347656 285.222656 L 199.664062 285.066406 L 200.140625 284.304688 L 200.300781 284.152344 L 201.09375 282.222656 L 201.25 282.113281 L 201.566406 280.710938 L 201.886719 280.1875 L 202.203125 280.171875 L 202.363281 279.699219 L 202.835938 279.53125 L 202.996094 279.277344 L 203.3125 279.175781 L 203.632812 278.75 L 203.789062 278.714844 L 204.105469 278.550781 L 204.425781 278.46875 L 204.582031 278.359375 L 205.058594 277.066406 L 205.21875 276.085938 L 205.375 275.835938 L 205.695312 274.15625 L 206.011719 273.988281 L 206.167969 271.9375 L 206.488281 255.757812 L 206.644531 255.449219 L 206.804688 254.046875 L 207.121094 253.8125 L 207.28125 252.90625 L 207.4375 252.769531 L 207.757812 248.679688 L 207.914062 248.523438 L 208.234375 244.960938 L 208.390625 243.460938 L 208.550781 243.371094 L 208.707031 243.121094 L 208.867188 242.441406 L 209.027344 232.425781 L 209.183594 231.84375 L 209.34375 230.625 L 209.503906 230.5 L 209.660156 229.496094 L 209.820312 226.539062 L 209.976562 226.519531 L 210.136719 226.109375 L 210.453125 224.210938 L 210.613281 223.757812 L 211.089844 221.011719 L 211.246094 220.519531 L 211.40625 219.019531 L 211.722656 214.136719 L 211.882812 212.3125 L 212.039062 212.226562 L 212.359375 211.613281 L 212.515625 207.347656 L 212.675781 192.488281 L 212.835938 191.113281 L 212.992188 190.824219 L 213.308594 186.90625 L 213.46875 184.324219 L 213.628906 184.171875 L 213.785156 182.132812 L 213.945312 182.109375 L 214.105469 180.785156 L 214.421875 180.683594 L 214.738281 180.511719 L 214.898438 179.351562 L 215.054688 179.238281 L 215.214844 178.890625 L 215.375 177.460938 L 215.53125 177.402344 L 215.691406 176.621094 L 216.007812 169.558594 L 216.167969 169.554688 L 216.324219 167.230469 L 216.644531 161.207031 L 216.960938 159.914062 L 217.117188 162.125 L 217.277344 162.042969 L 217.4375 161.351562 L 217.59375 161.375 L 217.753906 161.214844 L 218.070312 159.941406 L 218.386719 159.785156 L 219.023438 155.011719 L 219.179688 141.34375 L 219.339844 141.023438 L 219.5 138.347656 L 219.65625 137.640625 L 219.816406 136.375 L 219.976562 134.082031 L 220.292969 133.519531 L 220.609375 127.066406 L 220.769531 127.121094 L 220.925781 127.414062 L 221.085938 126.296875 L 221.246094 121.445312 L 221.402344 120.183594 L 221.5625 120.183594 L 221.71875 118.105469 L 221.878906 109.722656 L 222.039062 108.542969 L 222.355469 108.3125 L 222.515625 107.582031 L 222.832031 103.03125 L 223.148438 100.492188 L 223.308594 92.15625 L 223.464844 92.039062 L 223.625 89.398438 L 223.78125 89.105469 L 223.941406 87.097656 L 224.101562 87 L 224.578125 86.152344 L 224.894531 85.949219 L 225.050781 86.070312 L 225.210938 83.332031 L 225.371094 82.925781 L 225.6875 80.691406 L 225.847656 80.253906 L 226.003906 76.035156 L 226.164062 75.847656 L 226.480469 75.75 L 226.796875 80.484375 L 226.957031 80.21875 L 227.117188 79.078125 L 227.273438 79.152344 L 227.589844 79.097656 L 227.75 79.097656 L 227.910156 74.214844 L 228.066406 75.289062 L 228.226562 75.375 L 228.542969 77.90625 L 228.703125 79.238281 L 228.859375 79.21875 L 229.019531 79.351562 L 229.179688 78.230469 L 229.335938 82.96875 L 229.496094 81.480469 L 229.652344 82.023438 L 229.8125 81.941406 L 229.972656 80.507812 L 230.128906 81.089844 L 230.289062 81.105469 L 230.449219 80.960938 L 230.605469 74.40625 L 230.765625 73.976562 L 230.921875 74.285156 L 231.082031 72.277344 L 231.398438 64.632812 L 231.558594 65.054688 L 231.71875 66.214844 L 231.875 66.179688 L 232.035156 65.03125 L 232.191406 65.617188 L 232.351562 65.425781 L 232.511719 64.453125 L 232.667969 60.726562 L 232.828125 61.574219 L 232.988281 71.730469 L 233.144531 71.519531 L 233.304688 68.789062 L 233.460938 62.625 L 233.621094 62.328125 L 233.78125 64.804688 L 233.9375 63.660156 L 234.097656 65.007812 L 234.257812 64.957031 L 234.414062 63.863281 L 234.574219 58.898438 L 234.730469 58.925781 L 234.890625 57.554688 L 235.050781 57.5625 L 235.207031 57.925781 L 235.367188 57.777344 L 235.683594 55.261719 L 236.160156 53.566406 L 236.320312 55.722656 L 236.476562 54.847656 L 236.636719 55.125 L 236.792969 59.878906 L 236.953125 56.972656 L 237.113281 57.15625 L 237.269531 56.507812 L 237.429688 56.523438 L 237.589844 56.40625 L 237.746094 57.890625 L 238.222656 56.941406 L 238.382812 57.554688 L 238.699219 56.382812 L 238.859375 56.796875 L 239.175781 59.496094 L 239.332031 60.273438 L 239.492188 64.738281 L 239.652344 63.785156 L 239.808594 65.589844 L 239.96875 64.246094 L 240.125 61.660156 L 240.445312 62.507812 L 240.601562 62.566406 L 240.761719 65.0625 L 241.078125 64.054688 L 241.238281 63.855469 L 241.394531 64.296875 L 241.554688 63.007812 L 241.714844 64.382812 L 241.871094 64.238281 L 242.03125 63.195312 L 242.191406 68.332031 L 242.347656 68.085938 L 242.507812 68.316406 L 242.824219 65.425781 L 242.984375 69.054688 L 243.300781 66.890625 L 243.460938 68.144531 L 243.617188 74.273438 L 243.777344 71.476562 L 243.933594 72.351562 L 244.09375 71.019531 L 244.253906 73.136719 L 244.410156 71.820312 L 244.570312 71.449219 L 244.730469 69.5 L 244.886719 69.929688 L 245.046875 68.605469 L 245.203125 68.5625 L 245.363281 68.742188 L 245.679688 71.429688 L 245.839844 72.394531 L 245.996094 72.542969 L 246.15625 73.808594 L 246.316406 78.648438 L 246.472656 78.898438 L 246.632812 78.773438 L 246.792969 80.671875 L 247.109375 91.558594 L 247.265625 92.101562 L 247.425781 94.460938 L 247.585938 94.433594 L 247.742188 94.632812 L 247.902344 95.261719 L 248.0625 95.164062 L 248.21875 102.359375 L 248.378906 102.757812 L 248.535156 102.695312 L 249.011719 103.515625 L 249.332031 103.550781 L 249.488281 105.148438 L 249.804688 111.851562 L 250.125 112.5625 L 250.441406 116.761719 L 250.757812 116.832031 L 250.917969 124.507812 L 251.074219 125.445312 L 251.234375 125.472656 L 251.550781 131.117188 L 251.710938 135.402344 L 251.867188 135.46875 L 252.027344 135.734375 L 252.34375 141.164062 L 252.664062 142.324219 L 252.820312 143.082031 L 253.296875 154.734375 L 253.613281 158.097656 L 253.773438 165.519531 L 253.933594 166.621094 L 254.089844 166.714844 L 254.25 166.042969 L 254.40625 166.601562 L 254.566406 166.660156 L 254.726562 169.074219 L 254.882812 174.042969 L 255.042969 173.878906 L 255.203125 175.039062 L 255.359375 174.984375 L 256.152344 178.332031 L 256.3125 179.554688 L 256.472656 183.851562 L 256.789062 185.699219 L 256.945312 187.886719 L 257.105469 188.101562 L 257.265625 192.6875 L 257.421875 193.261719 L 257.582031 194.511719 L 257.738281 194.523438 L 258.375 195.824219 L 258.851562 199.113281 L 259.007812 199.683594 L 259.328125 201.589844 L 259.484375 201.761719 L 259.644531 202.496094 L 259.804688 212.90625 L 260.121094 215.785156 L 260.753906 224.222656 L 260.914062 224.503906 L 261.074219 226.0625 L 261.230469 229.550781 L 261.707031 231.816406 L 261.867188 238.300781 L 262.183594 238.730469 L 262.660156 248.285156 L 262.816406 248.355469 L 263.136719 252.089844 L 263.292969 252.128906 L 263.609375 256.71875 L 263.769531 257.101562 L 264.40625 266.25 L 264.5625 266.28125 L 265.039062 270.648438 L 265.199219 270.664062 L 265.355469 272.21875 L 265.675781 272.546875 L 265.832031 273.832031 L 265.992188 273.851562 L 266.308594 276.199219 L 266.625 276.429688 L 266.945312 276.65625 L 267.101562 276.910156 L 267.261719 276.917969 L 267.417969 277.46875 L 267.578125 277.496094 L 267.894531 277.746094 L 268.054688 277.761719 L 268.6875 278.542969 L 269.800781 279.445312 L 269.957031 280.066406 L 270.117188 280.09375 L 270.277344 280.261719 L 270.433594 280.261719 L 270.59375 280.460938 L 270.75 280.878906 L 270.910156 280.890625 L 271.070312 281.367188 L 271.226562 281.4375 L 271.546875 281.75 L 271.703125 282.519531 L 271.863281 283.867188 L 272.019531 284.21875 L 272.339844 284.300781 L 272.816406 285.285156 L 272.972656 285.289062 L 273.132812 285.78125 L 273.289062 285.84375 L 273.609375 286.316406 L 273.765625 286.640625 L 274.242188 289.414062 L 274.402344 289.425781 L 274.558594 291.394531 L 274.878906 291.542969 L 275.195312 291.558594 L 275.828125 292.335938 L 275.988281 292.367188 L 276.304688 294.523438 L 276.78125 295.488281 L 398.488281 295.488281 "/>
</g>
</svg>
