<?xml version="1.0" encoding="UTF-8"?>
<svg xmlns="http://www.w3.org/2000/svg" xmlns:xlink="http://www.w3.org/1999/xlink" width="460.8pt" height="345.6pt" viewBox="0 0 460.8 345.6" version="1.1">
<g id="surface1">
<path style=" stroke:none;fill-rule:nonzero;fill:rgb(100%,100%,100%);fill-opacity:1;" d="M 0 0 L 460.800781 0 L 460.800781 345.601562 L 0 345.601562 Z M 0 0 "/>
<path style="fill:none;stroke-width:1.5;stroke-linecap:square;stroke-linejoin:round;stroke:rgb(0%,0%,0%);stroke-opacity:1;stroke-miterlimit:10;" d="M 73.832031 251.082031 L 175.070312 251.109375 L 175.386719 253.121094 L 175.703125 252.117188 L 176.019531 253.761719 L 176.339844 251.617188 L 176.65625 247.109375 L 176.972656 251.203125 L 177.289062 253.582031 L 177.609375 252.414062 L 177.925781 253.449219 L 178.558594 248.808594 L 178.878906 251.03125 L 179.195312 245.246094 L 179.511719 255.578125 L 179.828125 250.074219 L 180.148438 252.484375 L 180.78125 247.175781 L 181.097656 249.902344 L 181.417969 256.757812 L 181.734375 250.960938 L 182.050781 248.058594 L 182.367188 253.316406 L 182.6875 247.019531 L 183.003906 249.570312 L 183.320312 246.484375 L 183.636719 247.726562 L 183.953125 252.367188 L 184.273438 244.042969 L 184.589844 250.007812 L 184.90625 253.011719 L 185.222656 253.292969 L 185.542969 255.386719 L 185.859375 250.335938 L 186.175781 257.027344 L 186.8125 245.621094 L 187.128906 254.40625 L 187.445312 253.261719 L 187.761719 254.855469 L 188.082031 254.007812 L 188.398438 246.957031 L 188.714844 248.925781 L 189.03125 249.144531 L 189.351562 253.859375 L 189.667969 260.304688 L 189.984375 258.515625 L 190.300781 258.988281 L 190.621094 254 L 190.9375 246.992188 L 191.253906 249.777344 L 191.570312 245.558594 L 191.890625 249.277344 L 192.207031 254.449219 L 192.523438 253.921875 L 192.839844 252.289062 L 193.160156 254.5 L 193.476562 246.625 L 193.792969 256.96875 L 194.109375 257.238281 L 194.429688 249.953125 L 194.746094 251.207031 L 195.0625 250.375 L 195.378906 251.726562 L 195.695312 248.710938 L 196.015625 247.996094 L 196.332031 257.578125 L 196.648438 263.085938 L 196.964844 254.589844 L 197.285156 252.332031 L 197.601562 259.433594 L 198.234375 246.996094 L 198.554688 255.644531 L 198.871094 254.847656 L 199.1875 256.882812 L 199.503906 249.378906 L 199.824219 258.539062 L 200.140625 257.839844 L 200.457031 256.84375 L 200.773438 254.960938 L 201.09375 263.792969 L 201.410156 259.183594 L 201.726562 256.996094 L 202.042969 240.253906 L 202.363281 260.605469 L 202.679688 255.984375 L 202.996094 248.148438 L 203.3125 258.546875 L 203.632812 264.265625 L 203.949219 250.226562 L 204.265625 255.410156 L 204.582031 247.0625 L 204.902344 252.367188 L 205.21875 244.59375 L 205.535156 264.066406 L 205.851562 261.367188 L 206.167969 261.066406 L 206.488281 259.761719 L 206.804688 244.640625 L 207.121094 240.195312 L 207.4375 250.605469 L 207.757812 244.132812 L 208.074219 267.710938 L 208.707031 246.277344 L 209.027344 238.121094 L 209.34375 249.441406 L 209.660156 249.980469 L 209.976562 254.984375 L 210.296875 280.039062 L 210.613281 267.550781 L 210.929688 233.804688 L 211.246094 242.589844 L 211.566406 230.144531 L 211.882812 229.03125 L 212.199219 256.859375 L 212.515625 252.945312 L 212.835938 263.136719 L 213.152344 226.695312 L 213.46875 236.101562 L 213.785156 237.640625 L 214.105469 257.140625 L 214.421875 264.707031 L 214.738281 252.910156 L 215.375 240.3125 L 215.691406 153.644531 L 216.007812 242.457031 L 216.324219 243.210938 L 216.960938 280.332031 L 217.277344 272.027344 L 217.59375 242.90625 L 217.910156 242.210938 L 218.230469 236.570312 L 218.546875 257.292969 L 218.863281 247.453125 L 219.179688 263.898438 L 219.816406 233.4375 L 220.132812 257.8125 L 220.449219 247.25 L 220.769531 274.328125 L 221.085938 282.621094 L 221.71875 258.546875 L 222.039062 259.707031 L 222.355469 214.832031 L 222.671875 272.925781 L 223.308594 258.609375 L 223.625 255.824219 L 223.941406 281.492188 L 224.257812 256.824219 L 224.578125 245.859375 L 224.894531 264.289062 L 225.210938 268.992188 L 225.527344 244.578125 L 225.847656 274.730469 L 226.164062 260.035156 L 226.480469 274.640625 L 226.796875 267.285156 L 227.117188 239.449219 L 227.433594 242.730469 L 227.75 259.011719 L 228.066406 242.84375 L 228.386719 265.09375 L 228.703125 265.683594 L 229.019531 261.636719 L 229.335938 208.421875 L 229.652344 257.414062 L 229.972656 247.597656 L 230.289062 260.992188 L 230.605469 295.488281 L 230.921875 285.597656 L 231.242188 220.902344 L 231.558594 245.386719 L 231.875 214.4375 L 232.191406 221.035156 L 232.511719 263.808594 L 232.828125 247.851562 L 233.144531 270.054688 L 233.460938 208.085938 L 234.097656 230.96875 L 234.414062 264.515625 L 234.730469 275.550781 L 235.367188 230.472656 L 235.683594 232.277344 L 236 53.566406 L 236.320312 231.984375 L 236.636719 233.839844 L 236.953125 258.464844 L 237.269531 271.871094 L 237.589844 269.316406 L 237.90625 230.832031 L 238.222656 211.074219 L 238.539062 216.765625 L 238.859375 264.265625 L 239.175781 243.785156 L 239.492188 263.996094 L 239.808594 224.5 L 240.125 209.460938 L 240.445312 245.175781 L 240.761719 223.054688 L 241.078125 282.90625 L 241.394531 290.007812 L 241.714844 259.34375 L 242.03125 243.578125 L 242.347656 255.042969 L 242.664062 206.671875 L 242.984375 258.253906 L 243.300781 264.070312 L 243.617188 262.601562 L 243.933594 236.070312 L 244.253906 262.527344 L 244.570312 251.902344 L 244.886719 234.328125 L 245.203125 267.515625 L 245.523438 273.097656 L 245.839844 254.574219 L 246.15625 265.578125 L 246.472656 247.746094 L 246.792969 270.417969 L 247.109375 271.191406 L 247.425781 249.917969 L 247.742188 254.566406 L 248.0625 276.589844 L 248.378906 256.914062 L 248.695312 245.433594 L 249.011719 266.378906 L 249.332031 277.15625 L 249.648438 220.132812 L 249.964844 262.46875 L 250.28125 257.898438 L 250.601562 270.894531 L 250.917969 273.660156 L 251.234375 281.003906 L 251.550781 246.445312 L 251.867188 259.546875 L 252.1875 243.691406 L 252.503906 242.625 L 252.820312 258.707031 L 253.136719 248.101562 L 253.457031 261.300781 L 253.773438 241.8125 L 254.089844 244.1875 L 254.40625 249.140625 L 254.726562 271.414062 L 255.042969 272.054688 L 255.675781 238.183594 L 255.996094 247.835938 L 256.3125 153.140625 L 256.628906 240.277344 L 256.945312 244.410156 L 257.265625 253.214844 L 257.582031 254.222656 L 257.898438 252.550781 L 258.214844 244.609375 L 258.535156 227.804688 L 258.851562 235.867188 L 259.167969 256.097656 L 259.484375 249.792969 L 259.804688 251.441406 L 260.121094 234.636719 L 260.4375 229.640625 L 260.753906 247.863281 L 261.074219 236.054688 L 261.390625 264.820312 L 261.707031 267.472656 L 262.34375 242.964844 L 262.660156 251.988281 L 262.976562 233.40625 L 263.292969 246.933594 L 263.609375 253.171875 L 263.929688 255.945312 L 264.246094 242.710938 L 264.5625 243.738281 L 264.878906 253.582031 L 265.199219 240.398438 L 265.515625 257.1875 L 265.832031 257.238281 L 266.148438 252.464844 L 266.46875 252.082031 L 266.785156 245.65625 L 267.101562 252.917969 L 267.417969 263.246094 L 267.738281 255.125 L 268.054688 255.75 L 268.371094 264.75 L 268.6875 256.332031 L 269.007812 235.878906 L 269.640625 266.828125 L 269.957031 246.859375 L 270.277344 256.167969 L 270.59375 259.707031 L 270.910156 258.902344 L 271.226562 252.039062 L 271.546875 259.207031 L 271.863281 255.960938 L 272.179688 260.007812 L 272.496094 258.972656 L 273.132812 250.019531 L 273.765625 253.445312 L 274.082031 259.054688 L 274.402344 259.199219 L 274.71875 255.929688 L 275.035156 259.714844 L 275.351562 257.011719 L 275.671875 250.167969 L 275.988281 250.675781 L 276.304688 253.59375 L 276.941406 252.875 L 277.257812 256.746094 L 277.574219 251.019531 L 277.890625 254.550781 L 278.210938 250.96875 L 278.527344 255.480469 L 278.84375 252.082031 L 279.160156 255.121094 L 279.480469 251.667969 L 279.796875 252.972656 L 280.113281 250.3125 L 280.429688 251.242188 L 280.75 253.46875 L 281.066406 254.648438 L 281.382812 255.113281 L 281.699219 251.628906 L 282.335938 256.003906 L 282.652344 252.824219 L 282.96875 251.449219 L 283.289062 251.335938 L 283.605469 247.179688 L 283.921875 253.867188 L 284.238281 246.90625 L 284.558594 251.027344 L 284.875 250.769531 L 285.191406 256.296875 L 285.507812 255.152344 L 285.824219 255.378906 L 286.144531 252.25 L 286.460938 252.445312 L 287.09375 247.179688 L 287.414062 250.359375 L 287.730469 255.445312 L 288.046875 251.144531 L 288.363281 251.289062 L 288.683594 250.273438 L 289 248.558594 L 289.316406 242.867188 L 289.953125 256.09375 L 290.269531 248.417969 L 290.585938 253.382812 L 290.902344 252.832031 L 291.222656 246.710938 L 291.539062 250.226562 L 291.855469 247.972656 L 292.171875 250.65625 L 292.492188 255.53125 L 292.808594 248.710938 L 293.125 251.160156 L 293.441406 247.53125 L 293.761719 253.210938 L 294.078125 251.175781 L 294.710938 254.652344 L 295.03125 248.070312 L 295.347656 248.207031 L 295.664062 247.066406 L 295.980469 245.054688 L 296.300781 254.445312 L 296.617188 250.402344 L 296.933594 255.96875 L 297.25 251.082031 L 398.488281 251.082031 "/>
</g>
</svg>
